<svg width="200" height="200" viewBox="0 0 200 200" fill="none" xmlns="http://www.w3.org/2000/svg">
<g clip-path="url(#clip0_548_9990)">
<g filter="url(#filter0_i_548_9990)">
<path d="M9.76938 111.8V99.7194L40.059 52H50.4744V68.7213H44.3102L25.2153 98.94V99.5069H68.2585V111.8H9.76938ZM44.5936 124.553V108.116L44.877 102.766V52H59.2601V124.553H44.5936Z" fill="url(#paint0_linear_548_9990)"/>
</g>
<g filter="url(#filter1_i_548_9990)">
<path d="M129.587 111.8V99.7194L159.877 52H170.292V68.7213H164.128L145.033 98.94V99.5069H188.076V111.8H129.587ZM164.411 124.553V108.116L164.695 102.766V52H179.078V124.553H164.411Z" fill="url(#paint1_linear_548_9990)"/>
</g>
<g filter="url(#filter2_i_548_9990)">
<path d="M100.218 127.14C94.1246 127.116 88.8815 125.616 84.4886 122.64C80.1193 119.665 76.7538 115.354 74.3921 109.71C72.0539 104.065 70.8967 97.275 70.9203 89.3395C70.9203 81.4276 72.0893 74.6847 74.4275 69.111C76.7893 63.5372 80.1548 59.2978 84.524 56.3929C88.9169 53.4643 94.1482 52 100.218 52C106.288 52 111.507 53.4643 115.876 56.3929C120.269 59.3215 123.647 63.5726 126.008 69.1464C128.37 74.6965 129.539 81.4276 129.516 89.3395C129.516 97.2986 128.335 104.101 125.973 109.745C123.635 115.39 120.281 119.7 115.912 122.676C111.543 125.652 106.311 127.14 100.218 127.14ZM100.218 114.421C104.375 114.421 107.693 112.331 110.173 108.151C112.653 103.971 113.881 97.7001 113.857 89.3395C113.857 83.8366 113.29 79.2548 112.157 75.594C111.047 71.9333 109.464 69.1818 107.41 67.3397C105.378 65.4975 102.981 64.5764 100.218 64.5764C96.0849 64.5764 92.7784 66.6429 90.2985 70.776C87.8187 74.9091 86.567 81.0969 86.5433 89.3395C86.5433 94.9132 87.0984 99.5659 88.2084 103.298C89.342 107.005 90.9362 109.792 92.991 111.658C95.0457 113.5 97.4547 114.421 100.218 114.421Z" fill="url(#paint2_linear_548_9990)"/>
</g>
<g filter="url(#filter3_f_548_9990)">
<ellipse cx="100.385" cy="136.038" rx="99.3846" ry="10.9615" fill="#69A2FC" fill-opacity="0.37"/>
</g>
</g>
<defs>
<filter id="filter0_i_548_9990" x="9.76938" y="47.8683" width="58.4891" height="76.685" filterUnits="userSpaceOnUse" color-interpolation-filters="sRGB">
<feFlood flood-opacity="0" result="BackgroundImageFix"/>
<feBlend mode="normal" in="SourceGraphic" in2="BackgroundImageFix" result="shape"/>
<feColorMatrix in="SourceAlpha" type="matrix" values="0 0 0 0 0 0 0 0 0 0 0 0 0 0 0 0 0 0 127 0" result="hardAlpha"/>
<feOffset dy="-4.13166"/>
<feGaussianBlur stdDeviation="2.27241"/>
<feComposite in2="hardAlpha" operator="arithmetic" k2="-1" k3="1"/>
<feColorMatrix type="matrix" values="0 0 0 0 0.321569 0 0 0 0 0.572549 0 0 0 0 0.992157 0 0 0 1 0"/>
<feBlend mode="normal" in2="shape" result="effect1_innerShadow_548_9990"/>
</filter>
<filter id="filter1_i_548_9990" x="129.587" y="47.8683" width="58.4891" height="76.685" filterUnits="userSpaceOnUse" color-interpolation-filters="sRGB">
<feFlood flood-opacity="0" result="BackgroundImageFix"/>
<feBlend mode="normal" in="SourceGraphic" in2="BackgroundImageFix" result="shape"/>
<feColorMatrix in="SourceAlpha" type="matrix" values="0 0 0 0 0 0 0 0 0 0 0 0 0 0 0 0 0 0 127 0" result="hardAlpha"/>
<feOffset dy="-4.13166"/>
<feGaussianBlur stdDeviation="2.27241"/>
<feComposite in2="hardAlpha" operator="arithmetic" k2="-1" k3="1"/>
<feColorMatrix type="matrix" values="0 0 0 0 0.321569 0 0 0 0 0.572549 0 0 0 0 0.992157 0 0 0 1 0"/>
<feBlend mode="normal" in2="shape" result="effect1_innerShadow_548_9990"/>
</filter>
<filter id="filter2_i_548_9990" x="70.9199" y="48.6947" width="58.5961" height="78.4449" filterUnits="userSpaceOnUse" color-interpolation-filters="sRGB">
<feFlood flood-opacity="0" result="BackgroundImageFix"/>
<feBlend mode="normal" in="SourceGraphic" in2="BackgroundImageFix" result="shape"/>
<feColorMatrix in="SourceAlpha" type="matrix" values="0 0 0 0 0 0 0 0 0 0 0 0 0 0 0 0 0 0 127 0" result="hardAlpha"/>
<feOffset dy="-3.30533"/>
<feGaussianBlur stdDeviation="1.65267"/>
<feComposite in2="hardAlpha" operator="arithmetic" k2="-1" k3="1"/>
<feColorMatrix type="matrix" values="0 0 0 0 0.321569 0 0 0 0 0.572549 0 0 0 0 0.992157 0 0 0 1 0"/>
<feBlend mode="normal" in2="shape" result="effect1_innerShadow_548_9990"/>
</filter>
<filter id="filter3_f_548_9990" x="-19.9801" y="104.097" width="240.73" height="63.8835" filterUnits="userSpaceOnUse" color-interpolation-filters="sRGB">
<feFlood flood-opacity="0" result="BackgroundImageFix"/>
<feBlend mode="normal" in="SourceGraphic" in2="BackgroundImageFix" result="shape"/>
<feGaussianBlur stdDeviation="10.4901" result="effect1_foregroundBlur_548_9990"/>
</filter>
<linearGradient id="paint0_linear_548_9990" x1="39.0139" y1="52" x2="39.0139" y2="124.553" gradientUnits="userSpaceOnUse">
<stop stop-color="#85B6FD"/>
<stop offset="1" stop-color="#5898FE"/>
</linearGradient>
<linearGradient id="paint1_linear_548_9990" x1="158.832" y1="52" x2="158.832" y2="124.553" gradientUnits="userSpaceOnUse">
<stop stop-color="#85B6FD"/>
<stop offset="1" stop-color="#5898FE"/>
</linearGradient>
<linearGradient id="paint2_linear_548_9990" x1="100.218" y1="52" x2="100.218" y2="127.14" gradientUnits="userSpaceOnUse">
<stop stop-color="#83B2FD"/>
<stop offset="1" stop-color="#5393FD"/>
</linearGradient>
<clipPath id="clip0_548_9990">
<rect width="200" height="200" fill="white"/>
</clipPath>
</defs>
</svg>
